<?xml version="1.0" encoding="utf-8"?>
<!-- Generator: Adobe Illustrator 23.0.2, SVG Export Plug-In . SVG Version: 6.00 Build 0)  -->
<svg version="1.1" id="레이어_1" xmlns="http://www.w3.org/2000/svg" xmlns:xlink="http://www.w3.org/1999/xlink" x="0px"
	 y="0px" viewBox="0 0 5442.5 3061.4" style="enable-background:new 0 0 5442.5 3061.4;" xml:space="preserve">
<style type="text/css">
	.st0{opacity:0.5;}
	.st1{fill:none;stroke:#7F7F7F;stroke-miterlimit:10;}
</style>
<g class="st0">
	<path class="st1" d="M709.5,3064.6c161.4-36,312.7-38.6,448.3-11c17.3,3.4,34.4,7.2,51.3,11"/>
	<path class="st1" d="M554.1,3064.6c221.3-75.9,428.5-91.8,607.9-53.8c73.2,15.5,143,33.9,208.4,53.8"/>
	<path class="st1" d="M431.4,3064.6c269.7-115.9,522.8-147.1,736.5-100.1c126,27.8,242,63.4,343.4,100.1"/>
	<path class="st1" d="M324.1,3064.6c312.7-156.2,608.3-204.8,852.2-149.2c182.1,41.6,343.7,97.9,471.5,149.2"/>
	<path class="st1" d="M221.5,3064.6c20.5-9.8,41.4-20.1,62.5-31.2c331.2-173,646-230.6,902.8-169.8
		c248.4,58.7,459.1,141.4,598.8,201"/>
	<path class="st1" d="M89.6,3064.6c63.3-21.8,130.6-51.1,202.4-88c333.1-171.5,649.8-230.4,908.1-167.2
		c346.7,85,621.4,209.6,732.1,255.2"/>
	<path class="st1" d="M0,3033c91.3-21.2,192-59.4,302.8-115.5c335.1-169.6,653.8-230,913.2-164.3c450,114.3,781.2,283.2,790.1,268.1
		"/>
	<path class="st1" d="M0,2973c95.4-19.7,200.4-58.3,316.5-116.2c336.7-168.1,657.8-230,918.4-161.5
		c450.9,118.1,785.1,280.2,794.6,263.9"/>
	<path class="st1" d="M0,2911.9c99.8-18.2,210.7-57.2,333.4-117.4c338.6-166.2,661.7-229.4,923.4-158.8
		c451.9,122.3,789.3,277.3,799.2,260.1"/>
	<path class="st1" d="M0,2849.6c105.5-15.7,222.8-55.1,353.6-118.3c340.3-164.5,665.4-229.4,928.5-156
		c452.9,126.3,793.3,274.1,803.9,255.9"/>
	<path class="st1" d="M0,2786.2c111.8-12.7,237-52.4,377.3-118.9c342-162.8,669.4-228.9,933.8-153.3
		c454.1,130.4,797.1,271.1,808.3,251.8"/>
	<path class="st1" d="M0,2721.4c119-8.1,253.2-47.7,404.5-118.7c344.1-161.1,673.5-228.7,939.1-150.3
		c455.1,134.2,801.3,267.9,812.9,247.8"/>
	<path class="st1" d="M0,2655.4c126.8-2.1,271.3-41.8,435.7-117.4c345.8-159.2,677.5-228.3,944.1-147.5
		c456.2,138.2,805.3,265,817.8,243.8"/>
	<path class="st1" d="M0,2587.6c135.8,5.9,292-32.9,470.9-114c347.7-157.7,681.4-228.1,949.4-144.8
		c457.2,142.2,809.3,262,822.2,239.8"/>
	<path class="st1" d="M0,2517.2c145.3,17.2,314.6-20.1,510.6-107.7c349.6-155.8,685.3-227.9,954.5-142
		c458.3,146.3,813.3,258.8,826.9,235.7"/>
	<path class="st1" d="M0,2443.9c155.7,31.8,339.3-3,554.7-97.5c351.3-154.1,689.3-227.7,959.6-139.3
		c459.3,150.3,817.4,255.9,831.5,231.5"/>
	<path class="st1" d="M0,2367.4c13.9,3.6,28.7,7,44.3,10.4c157.4,33.9,342.4,0,558.9-93.5c353.2-152.4,693.3-227.4,964.8-136.5
		c460.4,154.3,821.5,252.9,836.2,227.4"/>
	<path class="st1" d="M0,2287.7c27.2,8.9,58.4,17.6,94.6,25.6c158.9,35.6,345.2,2.5,562.2-89.7c355-150.7,697.3-227.2,970.1-133.8
		c461.2,158.1,825.4,249.7,840.6,223.4"/>
	<path class="st1" d="M33.1,1939.2c0,0-13.9,7.4-33.1,20.1"/>
	<path class="st1" d="M0,2202.2c37.1,17.2,86.3,33.5,150,48.3c160.2,37.5,347.5,5.1,565.5-85.9c356.8-148.8,701.1-226.8,975.1-130.8
		c462.2,161.9,829.4,246.5,845.2,219.2"/>
	<path class="st1" d="M0,2103.7c36.5,30.1,102.3,59.8,210.5,86.1c161.6,39.4,350.2,7.8,568.6-81.8
		c358.9-147.1,705.2-226.6,980.5-128c463.3,166,833.4,243.6,849.9,215.2"/>
	<path class="st1" d="M106.2,1883c0,0-14.7,7.2-35,19.5c-21.3,13.1-48.9,32.2-71.1,54.9"/>
	<path class="st1" d="M184.5,1829.3c0,0-403.7,176.8,92.2,302.2c162.8,41.1,352.6,10.3,571.7-78
		c360.6-145.3,709.1-226.4,985.5-125.3c464.6,170,837.5,240.6,854.5,211.2"/>
	<path class="st1" d="M268.6,1778.4c0,0-418.9,167,79.8,297.5c164.2,43,355,12.9,575-74.1c362.4-143.6,713-226.2,990.7-122.5
		c465.6,173.9,841.5,237.5,859.2,207.2"/>
	<path class="st1" d="M358.5,1730.2c0,0-434.3,157.2,67.5,292.9c165.5,44.8,357.7,15.6,578.1-70.2c364.3-141.8,717-226,995.8-119.7
		c466.7,177.8,845.5,234.5,863.7,203.1"/>
	<path class="st1" d="M454.5,1684.5c0,0-449.5,147.3,55.1,288.3c166.9,46.6,360.2,18.2,581.3-66.4c366.2-140,720.9-225.8,1001-116.9
		c467.7,181.7,849.6,231.4,868.3,199"/>
	<path class="st1" d="M556.6,1642.4c0,0-464.8,137.5,42.8,283.7c168.2,48.4,362.7,20.8,584.5-62.5
		c368.1-138.2,724.8-225.5,1006.1-114.2c468.8,185.6,853.6,228.4,873,195"/>
	<path class="st1" d="M665.2,1604.3c0,0-480.1,127.7,30.4,279c169.7,50.3,365.2,23.4,587.7-58.6
		c369.9-136.4,728.8-225.3,1011.4-111.4c469.9,189.6,857.6,225.3,877.6,190.9"/>
	<path class="st1" d="M780.4,1570.4c0,0-495.4,117.9,18.1,274.4c171,52.1,367.8,26.1,590.9-54.7
		c371.7-134.6,732.8-225.1,1016.5-108.6c470.9,193.4,861.7,222.3,882.2,186.8"/>
	<path class="st1" d="M902.5,1541c0,0-510.7,108.1,5.7,269.8c172.4,53.9,370.3,28.7,594-50.8c373.6-132.8,736.7-224.9,1021.6-105.8
		c472,197.3,865.6,219.2,886.8,182.8"/>
	<path class="st1" d="M1031.5,1516.6c0,0-526,98.3-6.7,265.1c173.7,55.8,372.8,31.4,597.3-47c375.4-131,740.7-224.7,1026.8-103
		c473.1,201.2,869.7,216.2,891.5,178.7"/>
	<path class="st1" d="M1167.8,1497.3c0,0-541.3,88.6-19.1,260.5c175,57.6,375.3,34,600.4-43.1c377.4-129.2,744.6-224.5,1031.9-100.2
		c474.1,205.1,873.7,213.1,896,174.7"/>
	<path class="st1" d="M1311.5,1483.5c0,0-556.6,78.8-31.4,255.9c176.4,59.5,377.9,36.6,603.6-39.2
		c379.3-127.4,748.7-224.3,1037.2-97.4c475.2,209,877.7,210.1,900.6,170.6"/>
	<path class="st1" d="M1462.9,1475.5c0,0-571.9,69-43.8,251.2c177.7,61.3,380.4,39.3,606.8-35.3
		c381.1-125.6,752.6-224.1,1042.3-94.7c476.4,212.9,881.8,207,905.3,166.5"/>
	<path class="st1" d="M1576,1472.7c0,0-587.3,59.3-56.1,246.6c179,63.2,382.9,41.9,610-31.4c383-123.8,756.5-223.9,1047.5-91.9
		c477.5,216.7,885.8,204,909.8,162.5"/>
	<path class="st1" d="M1661.4,1468.9c0,0-602.5,49.5-68.4,242c180.5,65,385.5,44.6,613.1-27.6c384.8-122,760.6-223.7,1052.6-89.1
		c478.5,220.6,889.8,200.9,914.5,158.4"/>
	<path class="st1" d="M1744.3,1463c0,0-617.9,39.8-80.8,237.4c181.8,66.9,388.1,47.2,616.3-23.7
		c386.7-120.1,764.5-223.6,1057.8-86.3c479.6,224.4,893.8,197.9,919.1,154.3"/>
	<path class="st1" d="M1824.7,1455.2c0,0-633.2,30-93.2,232.7c183.1,68.7,390.6,49.9,619.5-19.8c388.6-118.3,768.4-223.4,1063-83.5
		c480.7,228.3,897.8,194.8,923.7,150.3"/>
	<path class="st1" d="M1902.8,1445.5c0,0-648.5,20.3-105.6,228.1c184.5,70.6,393.1,52.6,622.7-15.9
		c390.5-116.4,772.5-223.2,1068.2-80.7c481.8,232.1,901.9,191.8,928.3,146.2"/>
	<path class="st1" d="M1978.5,1433.9c0,0-663.9,10.6-117.9,223.5c185.8,72.4,395.6,55.2,625.9-12c392.4-114.6,776.4-223,1073.3-77.9
		c482.9,236,905.9,188.7,932.9,142.2"/>
	<path class="st1" d="M2051.9,1420.6c0,0-679.2,0.9-130.3,218.8c187.1,74.3,398.2,57.9,629.1-8.2
		c394.2-112.8,780.4-222.8,1078.5-75.1c484,239.8,909.9,185.7,937.5,138.1"/>
	<path class="st1" d="M2122.9,1405.6c0,0-694.6-8.8-142.6,214.2c188.5,76.2,400.8,60.6,632.3-4.3
		c396.1-110.9,784.4-222.7,1083.6-72.3c485.1,243.7,914,182.6,942.1,134"/>
	<path class="st1" d="M2249.3,1372.5c0,0-709.9-18.6-155,209.6c189.8,78,403.3,63.2,635.4-0.4c398-109.1,788.4-222.5,1088.9-69.6
		c486.2,247.5,918,179.6,946.8,130"/>
	<path class="st1" d="M2372.2,1332.1c0,0-725.3-28.3-167.3,205c191.1,79.9,405.8,65.9,638.6,3.5c399.9-107.2,792.4-222.3,1094-66.8
		c487.4,251.3,921.9,176.5,951.3,125.9"/>
	<path class="st1" d="M2486.5,1286.2c0,0-740.7-38-179.7,200.3c192.5,81.8,408.3,68.6,641.8,7.4c401.8-105.3,796.4-222.2,1099.2-64
		c488.5,255.2,926,173.4,955.9,121.9"/>
	<path class="st1" d="M2592.3,1235.2c0,0-756-47.7-192.1,195.7c193.9,83.7,410.9,71.2,645,11.2c403.6-103.4,800.3-222,1104.3-61.2
		c489.6,259,930,170.4,960.6,117.8"/>
	<path class="st1" d="M2690.3,1179.5c0,0-771.4-57.4-204.5,191.1c195.2,85.5,413.5,73.9,648.1,15.1
		c405.5-101.6,804.4-221.8,1109.5-58.4c490.7,262.8,934,167.3,965.2,113.7"/>
	<path class="st1" d="M2780.5,1119.7c0,0-786.8-67.1-216.8,186.4c196.5,87.4,416,76.6,651.4,19c407.4-99.7,808.3-221.7,1114.6-55.6
		c491.8,266.6,938.1,164.3,969.8,109.7"/>
	<path class="st1" d="M2863.4,1056.1c0,0-802.1-76.8-229.2,181.8c197.8,89.3,418.5,79.3,654.5,22.9
		C3698,1163,4101,1039.3,4408.5,1208c493,270.4,942.1,161.2,974.4,105.6"/>
	<path class="st1" d="M5442.3,1260c-92.4,58.1-509.6,134.2-961.9-116.8c-308.6-171.5-713.9-46-1125,50
		c-236.8,55.1-458.7,64.2-657.8-26.9c-44.1-20.1-80.1-38.4-108.9-54.7c-40.5-22.9-66.9-42.2-81.4-58.3
		c-37.1-40.3-1.9-61.1,61.6-70.6c43.7-6.6,101-7.8,157.3-6.8C2834.1,978,2939,989,2939,989"/>
	<path class="st1" d="M5442.3,1217.8c-160.2,48.1-516.5,71-896.9-142.4c-309.7-174-717.2-46.8-1130,47.3
		c-237.4,54.1-460.6,62.3-661-30.7c-36.3-17-67.1-32.2-92.8-46.2c-45.3-25-75.3-45.8-92.6-63c-43-42.8-9.3-64,55.1-73.6
		c43.5-6.6,101.3-7.4,158.7-5.9c113.5,3.2,225.8,16.1,225.8,16.1"/>
	<path class="st1" d="M5442.3,1161c-180.9,37.3-500.5,36-838.3-155.8c-310.9-176.6-720.3-47.7-1135.3,44.5
		c-237.8,52.8-462.2,60.4-664-34.6c-29.8-14-55.9-27.1-78.5-39.2c-49.6-26.5-82.7-48.5-102.3-66.8c-48.3-44.7-16-66.8,48.7-76.1
		c43-6.4,100.8-6.8,159.1-4.9c119,4,239.3,19.1,239.3,19.1"/>
	<path class="st1" d="M5442.3,1097c-187.8,27.8-479.6,11.7-785.5-163.9c-312.3-179.3-723.7-48.5-1140.5,41.8
		c-238.4,51.5-464.1,58.3-667.1-38.6c-24.7-11.7-46.8-22.9-66.5-33.1c-52.8-28-88.4-51.1-109.9-70.2c-52.8-46.4-22.6-69.1,42-78.4
		c42.4-5.9,99.8-6.4,158-4c124.9,5.1,254.8,22.5,254.8,22.5"/>
	<path class="st1" d="M5442.3,1028.5c-188.2,19.7-457.8-6.2-738.7-169.2c-313.3-181.7-726.9-49.4-1145.7,39
		c-239.3,50.5-466.1,56.4-670.5-42.4c-20.3-9.8-38.9-19.1-55.7-27.8c-56.1-29.5-93.9-53.6-117.1-73.6
		c-55.7-47.5-27.7-70.4,36.3-79.5c41.4-5.9,97.7-6.2,156.1-3.6c131,5.7,271.3,25.9,271.3,25.9"/>
	<path class="st1" d="M5442.3,957.3c-186.1,12.5-437-19.9-697.1-172.5c-314.6-184.4-730.2-50.2-1150.9,36
		c-239.9,49.4-467.8,54.5-673.7-46c-17.3-8.5-33.1-16.5-47.9-24.2c-58-30.3-97.3-55.1-121.7-75.5c-58-48.5-31.9-71.9,30.8-81
		c39.9-5.9,94.8-5.9,152.1-3.2c137.6,6.8,290.1,29.7,290.1,29.7"/>
	<path class="st1" d="M5442.3,883.7c-182.3,7-417.9-30.1-660.8-174.2c-315.6-187.2-733.6-51.3-1156,33.3
		c-240.5,48.1-469.7,52.4-676.8-50c-14.7-7.2-28.7-14.4-41.6-21.2c-59.2-31-99.8-56.4-125.3-77.4c-59.7-49-35.8-72.5,25.3-81.6
		c37.9-5.7,90.7-5.7,146.6-3c144.1,7.2,310.5,33.7,310.5,33.7"/>
	<path class="st1" d="M5442.3,808.9c-177.8,2.5-400.5-37.9-629.2-175.1c-316.9-189.7-736.7-51.9-1161.2,30.7
		c-241.1,46.8-471.5,50.2-680-54c-13.5-6.8-26.1-13.1-37.9-19.5c-59.7-31.4-100.8-57.5-126.8-78.4c-60.2-49-38.9-72.7,20.1-81.8
		c36.1-5.5,86.3-5.7,140.7-3c150.5,7.6,332.1,37.9,332.1,37.9"/>
	<path class="st1" d="M5442.3,734.3c-173.4-1.3-385.2-44.3-602.1-175.5c-317.9-192.5-739.9-53-1166.3,27.8
		c-241.8,45.6-473.4,48.3-683.2-57.9c-13.1-6.6-25.3-12.9-36.9-19.1c-59.4-31.8-100.6-57.7-126.6-78.9
		c-59.7-48.5-40.8-72.3,15.8-81.4c33.7-5.5,81-5.9,132.9-3.2c156.5,7.8,355.4,42.4,355.4,42.4"/>
	<path class="st1" d="M5442.3,659.5c-169.5-4-372-48.8-578.9-175.3c-319.2-195-743.5-53.6-1171.6,25
		c-242.4,44.5-475.3,46.4-686.4-61.7c-13.3-6.8-25.7-13.4-37.5-19.7c-58.4-31.4-99-57.2-124.9-78.4c-58.8-47.9-42.6-71.4,10.8-80.8
		c31.4-5.5,75.5-6.1,124.7-3.6c162.1,7.6,379.8,47.1,379.8,47.1"/>
	<path class="st1" d="M5442.3,586.1c-165.6-6.6-360.8-52.6-559.7-175.3c-320.2-197.6-746.6-54.5-1176.7,22.3
		c-243,43.5-477.3,44.3-689.7-65.5c-14.3-7.4-27.9-14.6-40.3-21.4c-57.1-31.2-96.9-56.6-122.1-77.6c-56.7-46.9-42.6-70.4,7.6-79.7
		c28.5-5.5,68.7-6.4,114.5-4.2c70,3,152.8,12.5,225.2,22.7c100,14.2,180.4,29.2,180.4,29.2"/>
	<path class="st1" d="M5442.3,514.1c-162.7-8.1-351.7-54.9-544.1-174.9c-321.3-200.3-749.9-55.3-1181.7,19.5
		c-243.7,42.2-479.2,42.4-692.8-69.5c-16.2-8.5-31.2-16.5-45.1-24.2c-54.4-30.5-92.6-55.3-117.1-76.1c-54.4-44.7-43-68,2.9-78
		c25.7-5.3,62.5-6.6,104.7-5.1c55.1,1.9,119.8,8.7,182.3,16.8h0.2c130.2,17.2,249.8,40.5,249.8,40.5"/>
	<path class="st1" d="M5442.3,444.5c-160.2-9.5-344.4-57-531.5-174.9c-322.6-203.1-753.2-56.2-1187,16.8
		c-244.3,40.9-481,40.3-696.1-73.3c-18.8-10-36.1-19.5-51.9-28.4c-51.9-29.5-88.2-53.8-111.6-73.8c-50.5-42.8-41.6-65.5,0.2-75.5
		c22.8-5.5,55.7-7.2,93.9-6.4h0.2c44.9,1.3,97.3,5.9,150.5,12.3l0.2,0.2c151.7,18,308.4,49.8,308.4,49.8"/>
	<path class="st1" d="M2834.5,0c4.4,9.8,14.1,21.4,30,35.4c22.1,19.1,56.1,42.4,104.5,70.4c18,10.4,38.1,21.6,60.4,33.5
		c55.9,29.9,113.3,52.2,171.8,68c167.9,45.8,345.8,38.8,527.4,9.1c435.7-70.8,868.4-219.4,1192-13.8
		c183.2,116.4,363.7,164.5,521.8,174.9"/>
	<path class="st1" d="M3431.6,22.3c0,0-48.1-10-117.1-22.3"/>
	<path class="st1" d="M2912,0c13.5,9.1,28.9,18.9,46.4,29h0.2c20.5,12.3,43.5,25.4,69.6,39.6c40.3,21.8,81.2,39.6,123,53.8h0.2
		c183.4,63,379,58.7,579.2,27.1C4168,80.6,4603-69.9,4928,138.5c180,115.5,357.9,163.9,514.5,175.1"/>
	<path class="st1" d="M3022.2,0c0.8,0.4,1.9,1.1,2.7,1.5c27.7,15.1,55.7,28.4,84.2,39.8l0.2,0.2c195.8,79.5,406.1,77.8,621.1,44.9
		c162.1-24.8,323.7-61,479.6-86.5"/>
	<path class="st1" d="M4758.1,0c61.2,17,119.6,42.4,174.9,78.2c178,115.3,353.8,163.9,509.3,175.3"/>
	<path class="st1" d="M3162,0c180.4,59.3,371.8,55.8,566.5,27.1c54-8,108-17.2,161.8-27.1"/>
	<path class="st1" d="M4900,0c12.2,6.6,24.2,13.8,36.1,21.6c176.6,115.3,351.1,164.1,506.1,175.7"/>
	<path class="st1" d="M4987,0c158.9,93.9,315,135.2,455.3,145.6"/>
	<path class="st1" d="M5075.4,0c128.1,61.3,252.8,90.1,366.9,98.6"/>
	<path class="st1" d="M5442.3,57.2c-84.8-6.2-174.9-23.5-268-57.2"/>
	<path class="st1" d="M5442.3,21.6c-47.6-3.4-97.1-10.2-147.7-21.6"/>
</g>
</svg>
