<svg id="레이어_1" data-name="레이어 1" xmlns="http://www.w3.org/2000/svg" viewBox="0 0 214.79 50.48"><defs><style>.cls-1{fill:#d4523a;}.cls-2{fill:#da7641;}.cls-3{fill:#137c7c;}.cls-4{fill:#4ea991;}.cls-5{fill:#fff;}.cls-6{fill:none;stroke:#d1d1d1;stroke-miterlimit:10;}</style></defs><title>로고_흰색</title><path class="cls-1" d="M5.05,50.48a5.06,5.06,0,0,1-5-5.06V11.14a5.05,5.05,0,0,1,2.24-4.2L11.31.86a5.05,5.05,0,1,1,5.63,8.39l-6.83,4.58V45.42A5.06,5.06,0,0,1,5.05,50.48Z"/><path class="cls-2" d="M5.05,6.14a5,5,0,0,0-5,5V45.42a5,5,0,0,0,10,0V11.14A5,5,0,0,0,5.05,6.14Z"/><path class="cls-3" d="M27.79,50.48a5,5,0,0,1-3.31-1.24l-9.07-7.85A5.05,5.05,0,0,1,22,33.75l.7.61V11.14a5.06,5.06,0,1,1,10.11,0V45.42a5.06,5.06,0,0,1-5.05,5.06Z"/><path class="cls-4" d="M27.79,50.42a5,5,0,0,0,5-5V11.14a5,5,0,0,0-10,0V45.42A5,5,0,0,0,27.79,50.42Z"/><path class="cls-5" d="M76.77,18.22l-.53,3c-.17,1.06-.6,1.42-1.66,1.42h-4.9L66.8,39c-.2,1-.6,1.39-1.66,1.39H61.4C60.34,40.34,60,40,60.24,39l2.88-16.33H58.19c-1.06,0-1.33-.36-1.16-1.42l.53-3c.2-1,.6-1.39,1.66-1.39H75.61C76.67,16.83,77,17.19,76.77,18.22Z"/><path class="cls-5" d="M85.41,18.22,82.53,34.54h8c1.06,0,1.36.33,1.16,1.39l-.53,3c-.2,1-.6,1.39-1.66,1.39H76.34C75.28,40.34,75,40,75.18,39l3.68-20.73c.16-1,.56-1.39,1.62-1.39h3.74C85.28,16.83,85.58,17.19,85.41,18.22Z"/><path class="cls-5" d="M134.9,21.53c2.66,0,3.9,1,4.44,2.66.18.52,0,.7-.54.93l-1.78.7c-.52.22-.7.15-.9-.37-.23-.69-.82-.94-1.65-.94-1.22,0-1.76.31-1.87.94s.88.93,2.17,1.09c2,.29,4.59,1.23,4,4.52-.49,2.64-2.74,3.77-6.06,3.77-2.68,0-4.59-.95-5-2.79-.09-.53.11-.78.67-1l1.79-.61c.58-.18.81-.13,1,.39s.85.95,1.86.95c1.22,0,2-.25,2.12-1s-.78-.9-1.93-1.06c-2-.29-4.83-1-4.24-4.46C129.45,22.88,131.46,21.53,134.9,21.53Z"/><path class="cls-5" d="M146.8,21.53c3.54,0,5.2,2.14,4.66,5.25L150.9,30c-.56,3.09-2.77,4.8-6.33,4.8s-5.2-2.08-4.68-5.19l.58-3.26C141,23.29,143.24,21.53,146.8,21.53Zm-.49,3.14A2.06,2.06,0,0,0,144,26.4L143.4,30c-.2,1.13.41,1.73,1.67,1.73A2.06,2.06,0,0,0,147.34,30L148,26.4C148.17,25.27,147.56,24.67,146.31,24.67Z"/><path class="cls-5" d="M157.28,22.55l-1.57,8.87H160c.57,0,.74.18.63.75l-.29,1.64c-.11.56-.32.75-.9.75h-7.12c-.57,0-.72-.19-.63-.75l2-11.26c.09-.56.3-.75.88-.75h2C157.21,21.8,157.37,22,157.28,22.55Z"/><path class="cls-5" d="M166.77,31.69A1.92,1.92,0,0,0,168.91,30l1.33-7.48c.09-.56.32-.75.88-.75h2c.56,0,.74.19.63.75l-1.35,7.61c-.54,3-2.63,4.67-6.17,4.67s-5.1-2.24-4.56-5.27l1.24-7c.1-.56.32-.75.9-.75h2c.57,0,.73.19.63.75L165.19,30C165,31.09,165.53,31.69,166.77,31.69Z"/><path class="cls-5" d="M185.21,22.55l-.28,1.62c-.09.58-.33.77-.9.77h-2.67l-1.56,8.87c-.11.56-.32.75-.9.75h-2c-.57,0-.74-.19-.63-.75l1.56-8.87h-2.67c-.58,0-.72-.19-.63-.77l.28-1.62c.11-.56.33-.75.9-.75h8.9C185.16,21.8,185.32,22,185.21,22.55Z"/><path class="cls-5" d="M187.19,21.8h2.12c.54,0,.7.18.59.72l-2,11.32c-.09.54-.31.72-.85.72h-2.12c-.54,0-.68-.18-.59-.72l2-11.32C186.45,22,186.65,21.8,187.19,21.8Z"/><path class="cls-5" d="M197.07,21.53c3.54,0,5.2,2.14,4.66,5.25L201.17,30c-.56,3.09-2.77,4.8-6.33,4.8s-5.19-2.08-4.67-5.19l.57-3.26C191.28,23.29,193.51,21.53,197.07,21.53Zm-.48,3.14a2.05,2.05,0,0,0-2.28,1.73L193.68,30c-.2,1.13.41,1.73,1.67,1.73A2.05,2.05,0,0,0,197.61,30l.63-3.56C198.44,25.27,197.83,24.67,196.59,24.67Z"/><path class="cls-5" d="M214.76,22.55l-2,11.26c-.09.56-.33.75-.9.75h-2c-.38,0-.54-.1-.66-.36l-2-4.26a10.78,10.78,0,0,1-.94-3.7h-.14a17.29,17.29,0,0,1-.21,4.64l-.53,2.93c-.1.56-.32.75-.89.75h-1.89c-.58,0-.74-.19-.63-.75l2-11.26c.1-.56.32-.75.89-.75h2c.4,0,.58.1.71.36l2.12,4.6a13.63,13.63,0,0,1,.93,3.29h.15a12.21,12.21,0,0,1,0-4.55l.52-2.95c.09-.56.3-.75.88-.75h1.89C214.69,21.8,214.85,22,214.76,22.55Z"/><line class="cls-6" x1="110.7" y1="20.55" x2="110.7" y2="36.62"/></svg>