<svg id="레이어_2" data-name="레이어 2" xmlns="http://www.w3.org/2000/svg" viewBox="0 0 214.79 50.48"><defs><style>.cls-1{fill:#d4523a;}.cls-2{fill:#da7641;}.cls-3{fill:#137c7c;}.cls-4{fill:#4ea991;}.cls-5{fill:#333;}.cls-6{fill:none;stroke:#d1d1d1;stroke-miterlimit:10;}</style></defs><title>logo_black</title><path class="cls-1" d="M5.1,50.45a5,5,0,0,1-5-5.05V11.15A5,5,0,0,1,2.29,7L11.35.88A5,5,0,0,1,17,9.27l-6.82,4.57V45.4A5,5,0,0,1,5.1,50.45Z"/><path class="cls-2" d="M5.1,6.16a5,5,0,0,0-5,5V45.4a5,5,0,1,0,10,0V11.15A5,5,0,0,0,5.1,6.16Z"/><path class="cls-3" d="M27.81,50.45a5,5,0,0,1-3.3-1.23l-9.06-7.84a5.05,5.05,0,0,1,6.61-7.64l.7.61V11.15a5,5,0,0,1,10.1,0V45.4a5.06,5.06,0,0,1-5.05,5.05Z"/><path class="cls-4" d="M27.81,50.4a5,5,0,0,0,5-5V11.15a5,5,0,0,0-10,0V45.4A5,5,0,0,0,27.81,50.4Z"/><path class="cls-5" d="M76.74,18.22l-.53,3c-.17,1.06-.6,1.42-1.65,1.42h-4.9L66.78,38.93c-.2,1-.59,1.39-1.65,1.39H61.39c-1.06,0-1.36-.36-1.16-1.39l2.88-16.31H58.18c-1.06,0-1.32-.36-1.16-1.42l.53-3c.2-1,.6-1.39,1.66-1.39H75.58C76.64,16.83,76.94,17.2,76.74,18.22Z"/><path class="cls-5" d="M85.38,18.22,82.5,34.53h7.94c1.06,0,1.35.33,1.15,1.39l-.52,3c-.2,1-.6,1.39-1.66,1.39H76.31c-1.06,0-1.32-.36-1.16-1.39l3.68-20.71c.16-1,.56-1.39,1.62-1.39h3.74C85.24,16.83,85.54,17.2,85.38,18.22Z"/><path class="cls-5" d="M134.8,21.55c2.65,0,3.89,1,4.43,2.65.18.52,0,.7-.54.93l-1.77.7c-.52.22-.7.15-.9-.37-.23-.69-.83-.94-1.65-.94-1.22,0-1.76.31-1.87.94s.88.93,2.17,1.09c2,.29,4.58,1.22,4,4.5-.49,2.64-2.73,3.77-6,3.77-2.67,0-4.57-1-4.93-2.78-.09-.54.11-.79.66-1l1.8-.61c.57-.18.8-.12,1,.4s.85.95,1.85.95c1.22,0,2-.25,2.12-1s-.77-.9-1.92-1.06c-2-.29-4.83-.95-4.24-4.45C129.36,22.89,131.37,21.55,134.8,21.55Z"/><path class="cls-5" d="M146.69,21.55c3.53,0,5.18,2.13,4.64,5.23L150.78,30c-.56,3.08-2.77,4.79-6.32,4.79s-5.18-2.08-4.66-5.18l.57-3.25C140.91,23.3,143.13,21.55,146.69,21.55Zm-.49,3.13a2.06,2.06,0,0,0-2.28,1.73L143.3,30c-.2,1.13.41,1.72,1.66,1.72A2,2,0,0,0,147.22,30l.63-3.55C148.05,25.28,147.44,24.68,146.2,24.68Z"/><path class="cls-5" d="M157.16,22.57l-1.56,8.84h4.3c.57,0,.74.18.63.75l-.29,1.64c-.11.55-.32.75-.9.75h-7.1c-.57,0-.72-.2-.63-.75l2-11.23c.09-.56.31-.76.88-.76h2C157.08,21.81,157.25,22,157.16,22.57Z"/><path class="cls-5" d="M166.64,31.68A1.91,1.91,0,0,0,168.77,30l1.33-7.46c.09-.56.32-.76.88-.76h2c.56,0,.74.2.63.76l-1.35,7.59c-.53,3-2.61,4.66-6.15,4.66s-5.09-2.24-4.55-5.26l1.23-7c.11-.56.33-.76.9-.76h2c.57,0,.73.2.62.76L165.06,30C164.88,31.09,165.4,31.68,166.64,31.68Z"/><path class="cls-5" d="M185.06,22.57l-.29,1.61c-.09.58-.33.77-.9.77h-2.66l-1.56,8.85c-.1.55-.32.75-.89.75h-2c-.57,0-.74-.2-.63-.75L177.66,25H175c-.57,0-.72-.19-.63-.77l.29-1.61c.11-.56.32-.76.9-.76h8.88C185,21.81,185.16,22,185.06,22.57Z"/><path class="cls-5" d="M187,21.81h2.11c.54,0,.7.18.6.72l-2,11.3c-.09.54-.31.72-.85.72H184.8c-.54,0-.69-.18-.6-.72l2-11.3C186.3,22,186.5,21.81,187,21.81Z"/><path class="cls-5" d="M196.91,21.55c3.53,0,5.18,2.13,4.64,5.23L201,30c-.56,3.08-2.76,4.79-6.32,4.79s-5.18-2.08-4.66-5.18l.57-3.25C191.13,23.3,193.35,21.55,196.91,21.55Zm-.49,3.13a2.06,2.06,0,0,0-2.28,1.73L193.52,30c-.2,1.13.41,1.72,1.66,1.72A2,2,0,0,0,197.44,30l.63-3.55C198.27,25.28,197.66,24.68,196.42,24.68Z"/><path class="cls-5" d="M214.57,22.57l-2,11.23c-.09.55-.32.75-.9.75h-2a.63.63,0,0,1-.67-.36l-2-4.25a11,11,0,0,1-.93-3.7H206a17.21,17.21,0,0,1-.22,4.63l-.52,2.93c-.11.55-.32.75-.9.75h-1.88c-.57,0-.73-.2-.63-.75l2-11.23c.1-.56.32-.76.89-.76h2.05a.66.66,0,0,1,.7.36l2.11,4.6a13.7,13.7,0,0,1,.94,3.28h.14a12.59,12.59,0,0,1,0-4.54l.52-2.94c.09-.56.31-.76.88-.76h1.89C214.5,21.81,214.66,22,214.57,22.57Z"/><line class="cls-6" x1="110.64" y1="20.55" x2="110.64" y2="36.61"/></svg>